<svg version="1.1" xmlns="http://www.w3.org/2000/svg" xmlns:xlink="http://www.w3.org/1999/xlink" width="1265.58154296875" height="628"><defs/><g><g><rect fill="#C0C0C0" stroke="none" x="351" y="383" width="227.115234375" height="58" transform="matrix(1 0 0 1 -230 -230)" fill-opacity="0.2"/></g><g><rect fill="#ffffff" stroke="none" x="344" y="376" width="227.115234375" height="58" transform="matrix(1 0 0 1 -230 -230)"/></g><g><path fill="none" stroke="#000000" paint-order="fill stroke markers" d=" M 114 146 L 341.115234375 146 L 341.115234375 204 L 114 204 L 114 146 Z Z" stroke-miterlimit="10" stroke-dasharray=""/></g><g><path fill="none" stroke="#000000" paint-order="fill stroke markers" d=" M 114 171 L 341.115234375 171" stroke-miterlimit="10" stroke-dasharray=""/></g><g><path fill="none" stroke="#000000" paint-order="fill stroke markers" d=" M 114 181 L 341.115234375 181" stroke-miterlimit="10" stroke-dasharray=""/></g><g><g><path fill="none" stroke="none"/><text fill="#000000" stroke="none" font-family="Arial" font-size="13px" font-style="normal" font-weight="bold" text-decoration="undefined" x="458.0576171875" y="389.5" text-anchor="middle" dominant-baseline="central" transform="matrix(1 0 0 1 -230 -230)">OrderPlacer</text></g></g><g><g><path fill="none" stroke="none"/><text fill="#000000" stroke="none" font-family="Arial" font-size="13px" font-style="normal" font-weight="normal" text-decoration="undefined" x="349" y="422.5" text-anchor="start" dominant-baseline="central" transform="matrix(1 0 0 1 -230 -230)">+createOrder(burger: Burger): Order</text></g></g><g><rect fill="#C0C0C0" stroke="none" x="335" y="551" width="206.89794921875" height="80" transform="matrix(1 0 0 1 -230 -230)" fill-opacity="0.2"/></g><g><rect fill="#ffffff" stroke="none" x="328" y="544" width="206.89794921875" height="80" transform="matrix(1 0 0 1 -230 -230)"/></g><g><path fill="none" stroke="#000000" paint-order="fill stroke markers" d=" M 98 314 L 304.89794921875 314 L 304.89794921875 394 L 98 394 L 98 314 Z Z" stroke-miterlimit="10" stroke-dasharray=""/></g><g><path fill="none" stroke="#000000" paint-order="fill stroke markers" d=" M 98 339 L 304.89794921875 339" stroke-miterlimit="10" stroke-dasharray=""/></g><g><path fill="none" stroke="#000000" paint-order="fill stroke markers" d=" M 98 349 L 304.89794921875 349" stroke-miterlimit="10" stroke-dasharray=""/></g><g><g><path fill="none" stroke="none"/><text fill="#000000" stroke="none" font-family="Arial" font-size="13px" font-style="italic" font-weight="bold" text-decoration="undefined" x="431.948974609375" y="557.5" text-anchor="middle" dominant-baseline="central" transform="matrix(1 0 0 1 -230 -230)">OrderBuilder</text></g></g><g><g><path fill="none" stroke="none"/><text fill="#000000" stroke="none" font-family="Arial" font-size="13px" font-style="normal" font-weight="normal" text-decoration="undefined" x="333" y="592.5" text-anchor="start" dominant-baseline="central" transform="matrix(1 0 0 1 -230 -230)">+addDrink(Drink): OrderBuilder</text></g></g><g><g><path fill="none" stroke="none"/><text fill="#000000" stroke="none" font-family="Arial" font-size="13px" font-style="normal" font-weight="normal" text-decoration="undefined" x="333" y="607.5" text-anchor="start" dominant-baseline="central" transform="matrix(1 0 0 1 -230 -230)">+addBurger(Burger): OrderBuilder</text></g></g><g><path fill="none" stroke="#000000" paint-order="fill stroke markers" d=" M 223 205 L 207 313" stroke-miterlimit="10" stroke-dasharray=""/></g><g><path fill="none" stroke="#000000" paint-order="fill stroke markers" d=" M 204.32525685438122 302.3301476530851 L 207 313 L 212.65339593256346 303.56394603503804" stroke-miterlimit="10" stroke-dasharray=""/></g><g><rect fill="#C0C0C0" stroke="none" x="359" y="719" width="131.01806640625" height="58" transform="matrix(1 0 0 1 -230 -230)" fill-opacity="0.2"/></g><g><rect fill="#ffffff" stroke="none" x="352" y="712" width="131.01806640625" height="58" transform="matrix(1 0 0 1 -230 -230)"/></g><g><path fill="none" stroke="#000000" paint-order="fill stroke markers" d=" M 122 482 L 253.01806640625 482 L 253.01806640625 540 L 122 540 L 122 482 Z Z" stroke-miterlimit="10" stroke-dasharray=""/></g><g><path fill="none" stroke="#000000" paint-order="fill stroke markers" d=" M 122 507 L 253.01806640625 507" stroke-miterlimit="10" stroke-dasharray=""/></g><g><path fill="none" stroke="#000000" paint-order="fill stroke markers" d=" M 122 517 L 253.01806640625 517" stroke-miterlimit="10" stroke-dasharray=""/></g><g><g><path fill="none" stroke="none"/><text fill="#000000" stroke="none" font-family="Arial" font-size="13px" font-style="normal" font-weight="bold" text-decoration="undefined" x="418.009033203125" y="725.5" text-anchor="middle" dominant-baseline="central" transform="matrix(1 0 0 1 -230 -230)">StandardOrder</text></g></g><g><g><path fill="none" stroke="none"/><text fill="#000000" stroke="none" font-family="Arial" font-size="13px" font-style="normal" font-weight="normal" text-decoration="undefined" x="357" y="758.5" text-anchor="start" dominant-baseline="central" transform="matrix(1 0 0 1 -230 -230)">+build(): OrderPlacer</text></g></g><g><path fill="none" stroke="#000000" paint-order="fill stroke markers" d=" M 190 481 L 197 395" stroke-miterlimit="10" stroke-dasharray=""/></g><g><path fill="#FFFFFF" stroke="none" paint-order="stroke fill markers" d=" M 203.74234873877253 415.94136417439836 L 197 395 L 186.95977989929656 414.57534112932467"/></g><g><path fill="none" stroke="#000000" paint-order="fill stroke markers" d=" M 203.74234873877253 415.94136417439836 L 197 395 L 186.95977989929656 414.57534112932467 L 203.74234873877253 415.94136417439836" stroke-miterlimit="10" stroke-dasharray=""/></g><g><rect fill="#C0C0C0" stroke="none" x="679" y="703" width="147.287109375" height="88" transform="matrix(1 0 0 1 -230 -230)" fill-opacity="0.2"/></g><g><rect fill="#ffffff" stroke="none" x="672" y="696" width="147.287109375" height="88" transform="matrix(1 0 0 1 -230 -230)"/></g><g><path fill="none" stroke="#000000" paint-order="fill stroke markers" d=" M 442 466 L 589.287109375 466 L 589.287109375 554 L 442 554 L 442 466 Z Z" stroke-miterlimit="10" stroke-dasharray=""/></g><g><path fill="none" stroke="#000000" paint-order="fill stroke markers" d=" M 442 491 L 589.287109375 491" stroke-miterlimit="10" stroke-dasharray=""/></g><g><path fill="none" stroke="#000000" paint-order="fill stroke markers" d=" M 442 544 L 589.287109375 544" stroke-miterlimit="10" stroke-dasharray=""/></g><g><g><path fill="none" stroke="none"/><text fill="#000000" stroke="none" font-family="Arial" font-size="13px" font-style="normal" font-weight="bold" text-decoration="undefined" x="746.1435546875" y="709.5" text-anchor="middle" dominant-baseline="central" transform="matrix(1 0 0 1 -230 -230)">ComplexOrder</text></g></g><g><g><path fill="none" stroke="none"/><text fill="#000000" stroke="none" font-family="Arial" font-size="13px" font-style="normal" font-weight="normal" text-decoration="undefined" x="677" y="732.5" text-anchor="start" dominant-baseline="central" transform="matrix(1 0 0 1 -230 -230)">-drinks: List&lt;Drinks&gt;</text></g></g><g><g><path fill="none" stroke="none"/><text fill="#000000" stroke="none" font-family="Arial" font-size="13px" font-style="normal" font-weight="normal" text-decoration="undefined" x="677" y="747.5" text-anchor="start" dominant-baseline="central" transform="matrix(1 0 0 1 -230 -230)">-burgers: LIst&lt;Burgers&gt;</text></g></g><g><g><path fill="none" stroke="none"/><text fill="#000000" stroke="none" font-family="Arial" font-size="13px" font-style="normal" font-weight="normal" text-decoration="undefined" x="677" y="762.5" text-anchor="start" dominant-baseline="central" transform="matrix(1 0 0 1 -230 -230)">+...</text></g></g><g><rect fill="#C0C0C0" stroke="none" x="951" y="719" width="51.919921875" height="45" transform="matrix(1 0 0 1 -230 -230)" fill-opacity="0.2"/></g><g><rect fill="#ffffff" stroke="none" x="944" y="712" width="51.919921875" height="45" transform="matrix(1 0 0 1 -230 -230)"/></g><g><path fill="none" stroke="#000000" paint-order="fill stroke markers" d=" M 714 482 L 765.919921875 482 L 765.919921875 527 L 714 527 L 714 482 Z Z" stroke-miterlimit="10" stroke-dasharray=""/></g><g><path fill="none" stroke="#000000" paint-order="fill stroke markers" d=" M 714 507 L 765.919921875 507" stroke-miterlimit="10" stroke-dasharray=""/></g><g><path fill="none" stroke="#000000" paint-order="fill stroke markers" d=" M 714 517 L 765.919921875 517" stroke-miterlimit="10" stroke-dasharray=""/></g><g><g><path fill="none" stroke="none"/><text fill="#000000" stroke="none" font-family="Arial" font-size="13px" font-style="normal" font-weight="bold" text-decoration="undefined" x="970.4599609375" y="725.5" text-anchor="middle" dominant-baseline="central" transform="matrix(1 0 0 1 -230 -230)">Drinks</text></g></g><g><path fill="none" stroke="#000000" paint-order="fill stroke markers" d=" M 713 505 L 590 508" stroke-miterlimit="10" stroke-dasharray=""/></g><g><path fill="#FFFFFF" stroke="none" paint-order="stroke fill markers" d=" M 600.0570127596144 503.543937348628 L 590 508 L 600.2622940389803 511.96046980262577 L 611.9934591941471 507.4635741659964"/></g><g><path fill="none" stroke="#000000" paint-order="fill stroke markers" d=" M 600.0570127596144 503.543937348628 L 590 508 L 600.2622940389803 511.96046980262577 L 611.9934591941471 507.4635741659964 L 600.0570127596144 503.543937348628" stroke-miterlimit="10" stroke-dasharray=""/></g><g><path fill="#ffffff" stroke="none" paint-order="stroke fill markers" d=" M 698 554 L 763.3671875 554 L 773.3671875 564 L 773.3671875 617 L 698 617 L 698 554"/></g><g><path fill="none" stroke="#000000" paint-order="fill stroke markers" d=" M 698 554 L 763.3671875 554 L 773.3671875 564 L 773.3671875 617 L 698 617 L 698 554 L 698 554" stroke-miterlimit="10" stroke-dasharray=""/></g><g><path fill="none" stroke="#000000" paint-order="fill stroke markers" d=" M 763.3671875 554 L 763.3671875 564 L 773.3671875 564 L 763.3671875 554" stroke-miterlimit="10" stroke-dasharray=""/></g><g><g><path fill="none" stroke="none"/><text fill="#000000" stroke="none" font-family="Arial" font-size="13px" font-style="normal" font-weight="normal" text-decoration="undefined" x="933" y="789" text-anchor="start" dominant-baseline="text-before-edge" transform="matrix(1 0 0 1 -230 -230)">Dovrebbe</text><text fill="#000000" stroke="none" font-family="Arial" font-size="13px" font-style="normal" font-weight="normal" text-decoration="undefined" x="933" y="802" text-anchor="start" dominant-baseline="text-before-edge" transform="matrix(1 0 0 1 -230 -230)">essere</text><text fill="#000000" stroke="none" font-family="Arial" font-size="13px" font-style="normal" font-weight="normal" text-decoration="undefined" x="933" y="815" text-anchor="start" dominant-baseline="text-before-edge" transform="matrix(1 0 0 1 -230 -230)">fatto per</text><text fill="#000000" stroke="none" font-family="Arial" font-size="13px" font-style="normal" font-weight="normal" text-decoration="undefined" x="933" y="828" text-anchor="start" dominant-baseline="text-before-edge" transform="matrix(1 0 0 1 -230 -230)">tutti</text></g></g><g><path fill="none" stroke="#000000" paint-order="fill stroke markers" d=" M 697 573 L 590 536" stroke-miterlimit="10" stroke-dasharray="3"/></g><g><path fill="none" stroke="#000000" paint-order="fill stroke markers" d=" M 254 511 L 441 510" stroke-miterlimit="10" stroke-dasharray="3"/></g><g><path fill="none" stroke="#000000" paint-order="fill stroke markers" d=" M 430.85998091730994 514.2638026458411 L 441 510 L 430.81495998075354 505.84488750978426" stroke-miterlimit="10" stroke-dasharray=""/></g><g><rect fill="#ffffff" stroke="none" x="552" y="704" width="50.5908203125" height="13" transform="matrix(1 0 0 1 -230 -230)"/></g><g><g><path fill="none" stroke="none"/><text fill="#000000" stroke="none" font-family="Arial" font-size="13px" font-style="normal" font-weight="normal" text-decoration="undefined" x="577.29541015625" y="710.5" text-anchor="middle" dominant-baseline="central" transform="matrix(1 0 0 1 -230 -230)">«create»</text></g></g><g><path fill="#C0C0C0" stroke="none" paint-order="stroke fill markers" d=" M 1135.290771484375 333 C 1135.290771484375 326.37258240000006 1140.663353884375 321 1147.290771484375 321 C 1153.918189084375 321 1159.290771484375 326.37258240000006 1159.290771484375 333 C 1159.290771484375 339.62741759999994 1153.918189084375 345 1147.290771484375 345 C 1140.663353884375 345 1135.290771484375 339.62741759999994 1135.290771484375 333 Z" fill-opacity="0.2"/></g><g><path fill="#ffffff" stroke="none" paint-order="stroke fill markers" d=" M 1128.290771484375 326 C 1128.290771484375 319.37258240000006 1133.663353884375 314 1140.290771484375 314 C 1146.918189084375 314 1152.290771484375 319.37258240000006 1152.290771484375 326 C 1152.290771484375 332.62741759999994 1146.918189084375 338 1140.290771484375 338 C 1133.663353884375 338 1128.290771484375 332.62741759999994 1128.290771484375 326 Z"/></g><g><path fill="none" stroke="#000000" paint-order="fill stroke markers" d=" M 1128.290771484375 326 C 1128.290771484375 319.37258240000006 1133.663353884375 314 1140.290771484375 314 C 1146.918189084375 314 1152.290771484375 319.37258240000006 1152.290771484375 326 C 1152.290771484375 332.62741759999994 1146.918189084375 338 1140.290771484375 338 C 1133.663353884375 338 1128.290771484375 332.62741759999994 1128.290771484375 326 Z" stroke-miterlimit="10" stroke-dasharray=""/></g><g><path fill="none" stroke="#000000" paint-order="fill stroke markers" d=" M 1026 363 L 1254.58154296875 363" stroke-miterlimit="10" stroke-dasharray=""/></g><g><g><path fill="none" stroke="none"/><text fill="#000000" stroke="none" font-family="Arial" font-size="13px" font-style="normal" font-weight="bold" text-decoration="undefined" x="1370.790771484375" y="581.5" text-anchor="middle" dominant-baseline="central" transform="matrix(1 0 0 1 -230 -230)">IAOrderStrategy</text></g></g><g><g><path fill="none" stroke="none"/><text fill="#000000" stroke="none" font-family="Arial" font-size="13px" font-style="normal" font-weight="normal" text-decoration="undefined" x="1261" y="604.5" text-anchor="start" dominant-baseline="central" transform="matrix(1 0 0 1 -230 -230)">+elaborateOrder(burger: Burger): void</text></g></g><g><path fill="#ffffff" stroke="none" paint-order="stroke fill markers" d=" M 1090 450 L 1149 450 L 1159 460 L 1159 489 L 1090 489 L 1090 450"/></g><g><path fill="none" stroke="#000000" paint-order="fill stroke markers" d=" M 1090 450 L 1149 450 L 1159 460 L 1159 489 L 1090 489 L 1090 450 L 1090 450" stroke-miterlimit="10" stroke-dasharray=""/></g><g><path fill="none" stroke="#000000" paint-order="fill stroke markers" d=" M 1149 450 L 1149 460 L 1159 460 L 1149 450" stroke-miterlimit="10" stroke-dasharray=""/></g><g><g><path fill="none" stroke="none"/><text fill="#000000" stroke="none" font-family="Arial" font-size="13px" font-style="normal" font-weight="normal" text-decoration="undefined" x="1325" y="685" text-anchor="start" dominant-baseline="text-before-edge" transform="matrix(1 0 0 1 -230 -230)">Strategy</text><text fill="#000000" stroke="none" font-family="Arial" font-size="13px" font-style="normal" font-weight="normal" text-decoration="undefined" x="1325" y="698" text-anchor="start" dominant-baseline="text-before-edge" transform="matrix(1 0 0 1 -230 -230)">Pattern</text></g></g><g><path fill="none" stroke="#000000" paint-order="fill stroke markers" d=" M 1128 449 L 1135 387" stroke-miterlimit="10" stroke-dasharray="3"/></g><g><path fill="#ffffff" stroke="none" paint-order="stroke fill markers" d=" M 10 490 L 69 490 L 79 500 L 79 529 L 10 529 L 10 490"/></g><g><path fill="none" stroke="#000000" paint-order="fill stroke markers" d=" M 10 490 L 69 490 L 79 500 L 79 529 L 10 529 L 10 490 L 10 490" stroke-miterlimit="10" stroke-dasharray=""/></g><g><path fill="none" stroke="#000000" paint-order="fill stroke markers" d=" M 69 490 L 69 500 L 79 500 L 69 490" stroke-miterlimit="10" stroke-dasharray=""/></g><g><g><path fill="none" stroke="none"/><text fill="#000000" stroke="none" font-family="Arial" font-size="13px" font-style="normal" font-weight="normal" text-decoration="undefined" x="245" y="725" text-anchor="start" dominant-baseline="text-before-edge" transform="matrix(1 0 0 1 -230 -230)">Builder</text><text fill="#000000" stroke="none" font-family="Arial" font-size="13px" font-style="normal" font-weight="normal" text-decoration="undefined" x="245" y="738" text-anchor="start" dominant-baseline="text-before-edge" transform="matrix(1 0 0 1 -230 -230)">Pattern</text></g></g><g><path fill="none" stroke="#000000" paint-order="fill stroke markers" d=" M 66 489 L 160 395" stroke-miterlimit="10" stroke-dasharray="3"/></g><g><path fill="#C0C0C0" stroke="none" paint-order="stroke fill markers" d=" M 773.541748046875 29 C 773.541748046875 22.3725824 778.914330446875 17 785.541748046875 17 C 792.169165646875 17 797.541748046875 22.3725824 797.541748046875 29 C 797.541748046875 35.6274176 792.169165646875 41 785.541748046875 41 C 778.914330446875 41 773.541748046875 35.6274176 773.541748046875 29 Z" fill-opacity="0.2"/></g><g><path fill="#ffffff" stroke="none" paint-order="stroke fill markers" d=" M 766.541748046875 22 C 766.541748046875 15.372582399999999 771.914330446875 10 778.541748046875 10 C 785.169165646875 10 790.541748046875 15.372582399999999 790.541748046875 22 C 790.541748046875 28.6274176 785.169165646875 34 778.541748046875 34 C 771.914330446875 34 766.541748046875 28.6274176 766.541748046875 22 Z"/></g><g><path fill="none" stroke="#000000" paint-order="fill stroke markers" d=" M 766.541748046875 22 C 766.541748046875 15.372582399999999 771.914330446875 10 778.541748046875 10 C 785.169165646875 10 790.541748046875 15.372582399999999 790.541748046875 22 C 790.541748046875 28.6274176 785.169165646875 34 778.541748046875 34 C 771.914330446875 34 766.541748046875 28.6274176 766.541748046875 22 Z" stroke-miterlimit="10" stroke-dasharray=""/></g><g><path fill="none" stroke="#000000" paint-order="fill stroke markers" d=" M 730 59 L 827.08349609375 59" stroke-miterlimit="10" stroke-dasharray=""/></g><g><g><path fill="none" stroke="none"/><text fill="#000000" stroke="none" font-family="Arial" font-size="13px" font-style="normal" font-weight="bold" text-decoration="undefined" x="1009.041748046875" y="277.5" text-anchor="middle" dominant-baseline="central" transform="matrix(1 0 0 1 -230 -230)">Server</text></g></g><g><g><path fill="none" stroke="none"/><text fill="#000000" stroke="none" font-family="Arial" font-size="13px" font-style="normal" font-weight="normal" text-decoration="undefined" x="965" y="300.5" text-anchor="start" dominant-baseline="central" transform="matrix(1 0 0 1 -230 -230)">+update(): void</text></g></g><g><rect fill="#C0C0C0" stroke="none" x="967" y="375" width="106.8271484375" height="45" transform="matrix(1 0 0 1 -230 -230)" fill-opacity="0.2"/></g><g><rect fill="#ffffff" stroke="none" x="960" y="368" width="106.8271484375" height="45" transform="matrix(1 0 0 1 -230 -230)"/></g><g><path fill="none" stroke="#000000" paint-order="fill stroke markers" d=" M 730 138 L 836.8271484375 138 L 836.8271484375 183 L 730 183 L 730 138 Z Z" stroke-miterlimit="10" stroke-dasharray=""/></g><g><path fill="none" stroke="#000000" paint-order="fill stroke markers" d=" M 730 163 L 836.8271484375 163" stroke-miterlimit="10" stroke-dasharray=""/></g><g><path fill="none" stroke="#000000" paint-order="fill stroke markers" d=" M 730 173 L 836.8271484375 173" stroke-miterlimit="10" stroke-dasharray=""/></g><g><g><path fill="none" stroke="none"/><text fill="#000000" stroke="none" font-family="Arial" font-size="13px" font-style="normal" font-weight="bold" text-decoration="undefined" x="1013.91357421875" y="381.5" text-anchor="middle" dominant-baseline="central" transform="matrix(1 0 0 1 -230 -230)">ConcreteServer</text></g></g><g><path fill="none" stroke="#000000" paint-order="fill stroke markers" d=" M 782 137 L 778.3934426229508 34" stroke-miterlimit="10" stroke-dasharray=""/></g><g><rect fill="#C0C0C0" stroke="none" x="735" y="367" width="113.3017578125" height="45" transform="matrix(1 0 0 1 -230 -230)" fill-opacity="0.2"/></g><g><rect fill="#ffffff" stroke="none" x="728" y="360" width="113.3017578125" height="45" transform="matrix(1 0 0 1 -230 -230)"/></g><g><path fill="none" stroke="#000000" paint-order="fill stroke markers" d=" M 498 130 L 611.3017578125 130 L 611.3017578125 175 L 498 175 L 498 130 Z Z" stroke-miterlimit="10" stroke-dasharray=""/></g><g><path fill="none" stroke="#000000" paint-order="fill stroke markers" d=" M 498 155 L 611.3017578125 155" stroke-miterlimit="10" stroke-dasharray=""/></g><g><path fill="none" stroke="#000000" paint-order="fill stroke markers" d=" M 498 165 L 611.3017578125 165" stroke-miterlimit="10" stroke-dasharray=""/></g><g><g><path fill="none" stroke="none"/><text fill="#000000" stroke="none" font-family="Arial" font-size="13px" font-style="normal" font-weight="bold" text-decoration="undefined" x="785.15087890625" y="373.5" text-anchor="middle" dominant-baseline="central" transform="matrix(1 0 0 1 -230 -230)">ConcreteSubject</text></g></g><g><rect fill="#C0C0C0" stroke="none" x="759" y="263" width="56.95361328125" height="45" transform="matrix(1 0 0 1 -230 -230)" fill-opacity="0.2"/></g><g><rect fill="#ffffff" stroke="none" x="752" y="256" width="56.95361328125" height="45" transform="matrix(1 0 0 1 -230 -230)"/></g><g><path fill="none" stroke="#000000" paint-order="fill stroke markers" d=" M 522 26 L 578.95361328125 26 L 578.95361328125 71 L 522 71 L 522 26 Z Z" stroke-miterlimit="10" stroke-dasharray=""/></g><g><path fill="none" stroke="#000000" paint-order="fill stroke markers" d=" M 522 51 L 578.95361328125 51" stroke-miterlimit="10" stroke-dasharray=""/></g><g><path fill="none" stroke="#000000" paint-order="fill stroke markers" d=" M 522 61 L 578.95361328125 61" stroke-miterlimit="10" stroke-dasharray=""/></g><g><g><path fill="none" stroke="none"/><text fill="#000000" stroke="none" font-family="Arial" font-size="13px" font-style="italic" font-weight="bold" text-decoration="undefined" x="780.976806640625" y="269.5" text-anchor="middle" dominant-baseline="central" transform="matrix(1 0 0 1 -230 -230)">Subject</text></g></g><g><path fill="none" stroke="#000000" paint-order="fill stroke markers" d=" M 580 48 L 729 46" stroke-miterlimit="10" stroke-dasharray=""/></g><g><path fill="none" stroke="#000000" paint-order="fill stroke markers" d=" M 718.8947390382795 50.345538044422824 L 729 46 L 718.7817420291922 41.92726086742317" stroke-miterlimit="10" stroke-dasharray=""/></g><g><path fill="none" stroke="#000000" paint-order="fill stroke markers" d=" M 553 129 L 551 72" stroke-miterlimit="10" stroke-dasharray=""/></g><g><path fill="#FFFFFF" stroke="none" paint-order="stroke fill markers" d=" M 560.1265893142928 92.01762641993895 L 551 72 L 543.2988738084433 92.6080725780389"/></g><g><path fill="none" stroke="#000000" paint-order="fill stroke markers" d=" M 560.1265893142928 92.01762641993895 L 551 72 L 543.2988738084433 92.6080725780389 L 560.1265893142928 92.01762641993895" stroke-miterlimit="10" stroke-dasharray=""/></g><g><path fill="none" stroke="#000000" paint-order="fill stroke markers" d=" M 729 158 L 612 154" stroke-miterlimit="10" stroke-dasharray=""/></g><g><path fill="none" stroke="#000000" paint-order="fill stroke markers" d=" M 622.3005719866273 150.14017918183907 L 612 154 L 622.0129097765309 158.55429882715777" stroke-miterlimit="10" stroke-dasharray=""/></g><g><rect fill="#C0C0C0" stroke="none" x="911" y="471" width="84.4326171875" height="45" transform="matrix(1 0 0 1 -230 -230)" fill-opacity="0.2"/></g><g><rect fill="#ffffff" stroke="none" x="904" y="464" width="84.4326171875" height="45" transform="matrix(1 0 0 1 -230 -230)"/></g><g><path fill="none" stroke="#000000" paint-order="fill stroke markers" d=" M 674 234 L 758.4326171875 234 L 758.4326171875 279 L 674 279 L 674 234 Z Z" stroke-miterlimit="10" stroke-dasharray=""/></g><g><path fill="none" stroke="#000000" paint-order="fill stroke markers" d=" M 674 259 L 758.4326171875 259" stroke-miterlimit="10" stroke-dasharray=""/></g><g><path fill="none" stroke="#000000" paint-order="fill stroke markers" d=" M 674 269 L 758.4326171875 269" stroke-miterlimit="10" stroke-dasharray=""/></g><g><g><path fill="none" stroke="none"/><text fill="#000000" stroke="none" font-family="Arial" font-size="13px" font-style="normal" font-weight="bold" text-decoration="undefined" x="946.71630859375" y="477.5" text-anchor="middle" dominant-baseline="central" transform="matrix(1 0 0 1 -230 -230)">LocalServer</text></g></g><g><rect fill="#C0C0C0" stroke="none" x="1079" y="471" width="86.60986328125" height="45" transform="matrix(1 0 0 1 -230 -230)" fill-opacity="0.2"/></g><g><rect fill="#ffffff" stroke="none" x="1072" y="464" width="86.60986328125" height="45" transform="matrix(1 0 0 1 -230 -230)"/></g><g><path fill="none" stroke="#000000" paint-order="fill stroke markers" d=" M 842 234 L 928.60986328125 234 L 928.60986328125 279 L 842 279 L 842 234 Z Z" stroke-miterlimit="10" stroke-dasharray=""/></g><g><path fill="none" stroke="#000000" paint-order="fill stroke markers" d=" M 842 259 L 928.60986328125 259" stroke-miterlimit="10" stroke-dasharray=""/></g><g><path fill="none" stroke="#000000" paint-order="fill stroke markers" d=" M 842 269 L 928.60986328125 269" stroke-miterlimit="10" stroke-dasharray=""/></g><g><g><path fill="none" stroke="none"/><text fill="#000000" stroke="none" font-family="Arial" font-size="13px" font-style="normal" font-weight="bold" text-decoration="undefined" x="1115.804931640625" y="477.5" text-anchor="middle" dominant-baseline="central" transform="matrix(1 0 0 1 -230 -230)">ProxyServer</text></g></g><g><path fill="none" stroke="#000000" paint-order="fill stroke markers" d=" M 841 256 L 759 256" stroke-miterlimit="10" stroke-dasharray=""/></g><g><path fill="none" stroke="#000000" paint-order="fill stroke markers" d=" M 769.1626748576241 251.790482243984 L 759 256 L 769.1626748576241 260.209517756016" stroke-miterlimit="10" stroke-dasharray=""/></g><g><path fill="none" stroke="#000000" paint-order="fill stroke markers" d=" M 732 233 L 766 184" stroke-miterlimit="10" stroke-dasharray=""/></g><g><path fill="#FFFFFF" stroke="none" paint-order="stroke fill markers" d=" M 761.3298726710865 205.4986025297398 L 766 184 L 747.4959136619074 195.8995289315339"/></g><g><path fill="none" stroke="#000000" paint-order="fill stroke markers" d=" M 761.3298726710865 205.4986025297398 L 766 184 L 747.4959136619074 195.8995289315339 L 761.3298726710865 205.4986025297398" stroke-miterlimit="10" stroke-dasharray=""/></g><g><path fill="none" stroke="#000000" paint-order="fill stroke markers" d=" M 861 233 L 809 184" stroke-miterlimit="10" stroke-dasharray=""/></g><g><path fill="#FFFFFF" stroke="none" paint-order="stroke fill markers" d=" M 829.5663495771416 191.8118669388826 L 809 184 L 818.0187811640392 204.06642933646077"/></g><g><path fill="none" stroke="#000000" paint-order="fill stroke markers" d=" M 829.5663495771416 191.8118669388826 L 809 184 L 818.0187811640392 204.06642933646077 L 829.5663495771416 191.8118669388826" stroke-miterlimit="10" stroke-dasharray=""/></g><g><path fill="none" stroke="#000000" paint-order="fill stroke markers" d=" M 497 156 L 342 167" stroke-miterlimit="10" stroke-dasharray=""/></g><g><path fill="none" stroke="#000000" paint-order="fill stroke markers" d=" M 351.8391888608321 162.08163009108932 L 342 167 L 352.4351698798441 170.47954444989495" stroke-miterlimit="10" stroke-dasharray=""/></g><g><rect fill="#C0C0C0" stroke="none" x="927" y="567" width="93.8017578125" height="45" transform="matrix(1 0 0 1 -230 -230)" fill-opacity="0.2"/></g><g><rect fill="#ffffff" stroke="none" x="920" y="560" width="93.8017578125" height="45" transform="matrix(1 0 0 1 -230 -230)"/></g><g><path fill="none" stroke="#000000" paint-order="fill stroke markers" d=" M 690 330 L 783.8017578125 330 L 783.8017578125 375 L 690 375 L 690 330 Z Z" stroke-miterlimit="10" stroke-dasharray=""/></g><g><path fill="none" stroke="#000000" paint-order="fill stroke markers" d=" M 690 355 L 783.8017578125 355" stroke-miterlimit="10" stroke-dasharray=""/></g><g><path fill="none" stroke="#000000" paint-order="fill stroke markers" d=" M 690 365 L 783.8017578125 365" stroke-miterlimit="10" stroke-dasharray=""/></g><g><g><path fill="none" stroke="none"/><text fill="#000000" stroke="none" font-family="Arial" font-size="13px" font-style="normal" font-weight="bold" text-decoration="undefined" x="967.40087890625" y="573.5" text-anchor="middle" dominant-baseline="central" transform="matrix(1 0 0 1 -230 -230)">OrderHandler</text></g></g><g><path fill="none" stroke="#000000" paint-order="fill stroke markers" d=" M 785 352 L 1025 351" stroke-miterlimit="10" stroke-dasharray=""/></g><g><path fill="none" stroke="#000000" paint-order="fill stroke markers" d=" M 1014.8549528639555 355.25182532654367 L 1025 351 L 1014.819873853826 346.8328628954656" stroke-miterlimit="10" stroke-dasharray=""/></g><g><path fill="none" stroke="#000000" paint-order="fill stroke markers" d=" M 721 280 L 731 329" stroke-miterlimit="10" stroke-dasharray=""/></g><g><path fill="none" stroke="#000000" paint-order="fill stroke markers" d=" M 724.8433688307053 319.8843051474246 L 731 329 L 733.0923739964106 318.20083470544387" stroke-miterlimit="10" stroke-dasharray=""/></g><g><rect fill="#C0C0C0" stroke="none" x="1103" y="663" width="152.70166015625" height="58" transform="matrix(1 0 0 1 -230 -230)" fill-opacity="0.2"/></g><g><rect fill="#ffffff" stroke="none" x="1096" y="656" width="152.70166015625" height="58" transform="matrix(1 0 0 1 -230 -230)"/></g><g><path fill="none" stroke="#000000" paint-order="fill stroke markers" d=" M 866 426 L 1018.70166015625 426 L 1018.70166015625 484 L 866 484 L 866 426 Z Z" stroke-miterlimit="10" stroke-dasharray=""/></g><g><path fill="none" stroke="#000000" paint-order="fill stroke markers" d=" M 866 451 L 1018.70166015625 451" stroke-miterlimit="10" stroke-dasharray=""/></g><g><path fill="none" stroke="#000000" paint-order="fill stroke markers" d=" M 866 461 L 1018.70166015625 461" stroke-miterlimit="10" stroke-dasharray=""/></g><g><g><path fill="none" stroke="none"/><text fill="#000000" stroke="none" font-family="Arial" font-size="13px" font-style="normal" font-weight="bold" text-decoration="undefined" x="1172.850830078125" y="669.5" text-anchor="middle" dominant-baseline="central" transform="matrix(1 0 0 1 -230 -230)">MobileApp - Client</text></g></g><g><g><path fill="none" stroke="none"/><text fill="#000000" stroke="none" font-family="Arial" font-size="13px" font-style="normal" font-weight="normal" text-decoration="undefined" x="1101" y="702.5" text-anchor="start" dominant-baseline="central" transform="matrix(1 0 0 1 -230 -230)">+submit(Order): Int</text></g></g><g><path fill="none" stroke="#000000" paint-order="fill stroke markers" d=" M 882 425 L 784 376" stroke-miterlimit="10" stroke-dasharray="3"/></g><g><path fill="none" stroke="#000000" paint-order="fill stroke markers" d=" M 794.9723262969392 376.7797792209975 L 784 376 L 791.2072191549614 384.3099935049528" stroke-miterlimit="10" stroke-dasharray=""/></g><g><rect fill="#ffffff" stroke="none" x="1032" y="650" width="35.419921875" height="13" transform="matrix(1 0 0 1 -230 -230)"/></g><g><g><path fill="none" stroke="none"/><text fill="#000000" stroke="none" font-family="Arial" font-size="13px" font-style="normal" font-weight="normal" text-decoration="undefined" x="1049.7099609375" y="656.5" text-anchor="middle" dominant-baseline="central" transform="matrix(1 0 0 1 -230 -230)">«use»</text></g></g><g><path fill="#ffffff" stroke="none" paint-order="stroke fill markers" d=" M 874 538 L 1127 538 L 1137 548 L 1137 593 L 874 593 L 874 538"/></g><g><path fill="none" stroke="#000000" paint-order="fill stroke markers" d=" M 874 538 L 1127 538 L 1137 548 L 1137 593 L 874 593 L 874 538 L 874 538" stroke-miterlimit="10" stroke-dasharray=""/></g><g><path fill="none" stroke="#000000" paint-order="fill stroke markers" d=" M 1127 538 L 1127 548 L 1137 548 L 1127 538" stroke-miterlimit="10" stroke-dasharray=""/></g><g><g><path fill="none" stroke="none"/><text fill="#000000" stroke="none" font-family="Arial" font-size="13px" font-style="normal" font-weight="normal" text-decoration="undefined" x="1109" y="773" text-anchor="start" dominant-baseline="text-before-edge" transform="matrix(1 0 0 1 -230 -230)">Int = Numero di Ordine</text></g></g><g><g><path fill="none" stroke="none"/></g></g><g><g><path fill="none" stroke="none"/><text fill="#000000" stroke="none" font-family="Arial" font-size="13px" font-style="normal" font-weight="normal" text-decoration="undefined" x="1109" y="790" text-anchor="start" dominant-baseline="text-before-edge" transform="matrix(1 0 0 1 -230 -230)">90% dei casi noi NON mettiamo il Client</text><text fill="#000000" stroke="none" font-family="Arial" font-size="13px" font-style="normal" font-weight="normal" text-decoration="undefined" x="1109" y="803" text-anchor="start" dominant-baseline="text-before-edge" transform="matrix(1 0 0 1 -230 -230)">(qui per TOTALE completezza)</text></g></g><g><path fill="none" stroke="#000000" paint-order="fill stroke markers" d=" M 989 537 L 959 485" stroke-miterlimit="10" stroke-dasharray="3"/></g></g></svg>