<svg version="1.1" xmlns="http://www.w3.org/2000/svg" xmlns:xlink="http://www.w3.org/1999/xlink" width="512.9853515625" height="422"><defs/><g><g><rect fill="#ffffff" stroke="none" x="80" y="8" width="392" height="21" transform="matrix(1 0 0 1 -70 2)"/></g><g><path fill="none" stroke="#000000" paint-order="fill stroke markers" d=" M 10 10 L 402 10 L 402 31 L 10 31 L 10 10 Z Z" stroke-miterlimit="10" stroke-width="2" stroke-dasharray=""/></g><g><path fill="none" stroke="#000000" paint-order="fill stroke markers" d=" M 10 346 L 10 10 L 402 10 L 402 346" stroke-miterlimit="10" stroke-width="2" stroke-dasharray=""/></g><g><g><path fill="none" stroke="none"/><text fill="#000000" stroke="none" font-family="Arial" font-size="13px" font-style="normal" font-weight="normal" text-decoration="undefined" x="276" y="12" text-anchor="middle" dominant-baseline="text-before-edge" transform="matrix(1 0 0 1 -70 2)">Contesto</text></g></g><g><path fill="#C0C0C0" stroke="none" paint-order="stroke fill markers" d=" M 113 67 C 113 61.477152000000004 117.47715199999999 57 123 57 C 128.522848 57 133 61.477152000000004 133 67 C 133 72.522848 128.522848 77 123 77 C 117.47715199999999 77 113 72.522848 113 67 Z" fill-opacity="0.2"/></g><g><path fill="#000000" stroke="none" paint-order="stroke fill markers" d=" M 106 60 C 106 54.477152000000004 110.47715199999999 50 116 50 C 121.52284800000001 50 126 54.477152000000004 126 60 C 126 65.522848 121.52284800000001 70 116 70 C 110.47715199999999 70 106 65.522848 106 60 Z"/></g><g><path fill="#C0C0C0" stroke="none" paint-order="stroke fill markers" d=" M 75 113 L 177.71533203125 113 Q 187.71533203125 113 187.71533203125 123 L 187.71533203125 144 Q 187.71533203125 154 177.71533203125 154 L 75 154 Q 65 154 65 144 L 65 123 Q 65 113 75 113 Z" fill-opacity="0.2"/></g><g><path fill="#ffffff" stroke="none" paint-order="stroke fill markers" d=" M 68 106 L 170.71533203125 106 Q 180.71533203125 106 180.71533203125 116 L 180.71533203125 137 Q 180.71533203125 147 170.71533203125 147 L 68 147 Q 58 147 58 137 L 58 116 Q 58 106 68 106 Z"/></g><g><path fill="none" stroke="#000000" paint-order="fill stroke markers" d=" M 68 106 L 170.71533203125 106 Q 180.71533203125 106 180.71533203125 116 L 180.71533203125 137 Q 180.71533203125 147 170.71533203125 147 L 68 147 Q 58 147 58 137 L 58 116 Q 58 106 68 106 Z" stroke-miterlimit="10" stroke-dasharray=""/></g><g><g><path fill="none" stroke="none"/><text fill="#000000" stroke="none" font-family="Arial" font-size="13px" font-style="normal" font-weight="bold" text-decoration="undefined" x="189.857666015625" y="117.5" text-anchor="middle" dominant-baseline="central" transform="matrix(1 0 0 1 -70 2)">Creazione carrello</text></g></g><g><path fill="none" stroke="#000000" paint-order="fill stroke markers" d=" M 117 71 L 118 105" stroke-miterlimit="10" stroke-dasharray=""/></g><g><path fill="none" stroke="#000000" paint-order="fill stroke markers" d=" M 113.49352878668873 94.96547374294148 L 118 105 L 121.90892520820617 94.71796208348509" stroke-miterlimit="10" stroke-dasharray=""/></g><g><path fill="#C0C0C0" stroke="none" paint-order="stroke fill markers" d=" M 275 113 L 350.24267578125 113 Q 360.24267578125 113 360.24267578125 123 L 360.24267578125 144 Q 360.24267578125 154 350.24267578125 154 L 275 154 Q 265 154 265 144 L 265 123 Q 265 113 275 113 Z" fill-opacity="0.2"/></g><g><path fill="#ffffff" stroke="none" paint-order="stroke fill markers" d=" M 268 106 L 343.24267578125 106 Q 353.24267578125 106 353.24267578125 116 L 353.24267578125 137 Q 353.24267578125 147 343.24267578125 147 L 268 147 Q 258 147 258 137 L 258 116 Q 258 106 268 106 Z"/></g><g><path fill="none" stroke="#000000" paint-order="fill stroke markers" d=" M 268 106 L 343.24267578125 106 Q 353.24267578125 106 353.24267578125 116 L 353.24267578125 137 Q 353.24267578125 147 343.24267578125 147 L 268 147 Q 258 147 258 137 L 258 116 Q 258 106 268 106 Z" stroke-miterlimit="10" stroke-dasharray=""/></g><g><g><path fill="none" stroke="none"/><text fill="#000000" stroke="none" font-family="Arial" font-size="13px" font-style="normal" font-weight="bold" text-decoration="undefined" x="376.121337890625" y="117.5" text-anchor="middle" dominant-baseline="central" transform="matrix(1 0 0 1 -70 2)">Registrazione</text></g></g><g><path fill="#C0C0C0" stroke="none" paint-order="stroke fill markers" d=" M 305 67 C 305 61.477152000000004 309.477152 57 315 57 C 320.522848 57 325 61.477152000000004 325 67 C 325 72.522848 320.522848 77 315 77 C 309.477152 77 305 72.522848 305 67 Z" fill-opacity="0.2"/></g><g><path fill="#000000" stroke="none" paint-order="stroke fill markers" d=" M 298 60 C 298 54.477152000000004 302.477152 50 308 50 C 313.522848 50 318 54.477152000000004 318 60 C 318 65.522848 313.522848 70 308 70 C 302.477152 70 298 65.522848 298 60 Z"/></g><g><path fill="none" stroke="#000000" paint-order="fill stroke markers" d=" M 308 71 L 306 105" stroke-miterlimit="10" stroke-dasharray=""/></g><g><path fill="none" stroke="#000000" paint-order="fill stroke markers" d=" M 302.3945191168192 94.60767073265008 L 306 105 L 310.7990265153309 95.10205352079782" stroke-miterlimit="10" stroke-dasharray=""/></g><g><path fill="#C0C0C0" stroke="none" paint-order="stroke fill markers" d=" M 60 185 L 350 185 Q 353 185 353 188 L 353 188 Q 353 191 350 191 L 60 191 Q 57 191 57 188 L 57 188 Q 57 185 60 185 Z" fill-opacity="0.2"/></g><g><path fill="#000000" stroke="none" paint-order="stroke fill markers" d=" M 53 178 L 343 178 Q 346 178 346 181 L 346 181 Q 346 184 343 184 L 53 184 Q 50 184 50 181 L 50 181 Q 50 178 53 178 Z"/></g><g><path fill="none" stroke="#000000" paint-order="fill stroke markers" d=" M 151 148 L 192 177" stroke-miterlimit="10" stroke-dasharray=""/></g><g><path fill="none" stroke="#000000" paint-order="fill stroke markers" d=" M 181.27218531206108 174.56812993331428 L 192 177 L 186.1338813019638 167.6946976717277" stroke-miterlimit="10" stroke-dasharray=""/></g><g><path fill="none" stroke="#000000" paint-order="fill stroke markers" d=" M 262 148 L 206 177" stroke-miterlimit="10" stroke-dasharray=""/></g><g><path fill="none" stroke="#000000" paint-order="fill stroke markers" d=" M 213.08863383616284 168.58862256602362 L 206 177 L 216.9601630775834 176.06467903221497" stroke-miterlimit="10" stroke-dasharray=""/></g><g><path fill="#C0C0C0" stroke="none" paint-order="stroke fill markers" d=" M 153 229 L 197 209 L 241 229 L 197 249 L 153 229" fill-opacity="0.2"/></g><g><path fill="#ffffff" stroke="none" paint-order="stroke fill markers" d=" M 146 222 L 190 202 L 234 222 L 190 242 L 146 222"/></g><g><path fill="none" stroke="#000000" paint-order="fill stroke markers" d=" M 146 222 L 190 202 L 234 222 L 190 242 L 146 222 L 146 222" stroke-miterlimit="10" stroke-dasharray=""/></g><g><path fill="#ffffff" stroke="none" paint-order="stroke fill markers" d=" M 410 218 L 491.9853515625 218 L 501.9853515625 228 L 501.9853515625 320 L 410 320 L 410 218"/></g><g><path fill="none" stroke="#000000" paint-order="fill stroke markers" d=" M 410 218 L 491.9853515625 218 L 501.9853515625 228 L 501.9853515625 320 L 410 320 L 410 218 L 410 218" stroke-miterlimit="10" stroke-dasharray=""/></g><g><path fill="none" stroke="#000000" paint-order="fill stroke markers" d=" M 491.9853515625 218 L 491.9853515625 228 L 501.9853515625 228 L 491.9853515625 218" stroke-miterlimit="10" stroke-dasharray=""/></g><g><g><path fill="none" stroke="none"/><text fill="#000000" stroke="none" font-family="Arial" font-size="13px" font-style="normal" font-weight="normal" text-decoration="undefined" x="485" y="221" text-anchor="start" dominant-baseline="text-before-edge" transform="matrix(1 0 0 1 -70 2)">Al checkout</text><text fill="#000000" stroke="none" font-family="Arial" font-size="13px" font-style="normal" font-weight="normal" text-decoration="undefined" x="485" y="234" text-anchor="start" dominant-baseline="text-before-edge" transform="matrix(1 0 0 1 -70 2)">mandiamo</text><text fill="#000000" stroke="none" font-family="Arial" font-size="13px" font-style="normal" font-weight="normal" text-decoration="undefined" x="485" y="247" text-anchor="start" dominant-baseline="text-before-edge" transform="matrix(1 0 0 1 -70 2)">due azioni e</text><text fill="#000000" stroke="none" font-family="Arial" font-size="13px" font-style="normal" font-weight="normal" text-decoration="undefined" x="485" y="260" text-anchor="start" dominant-baseline="text-before-edge" transform="matrix(1 0 0 1 -70 2)">poi</text><text fill="#000000" stroke="none" font-family="Arial" font-size="13px" font-style="normal" font-weight="normal" text-decoration="undefined" x="485" y="273" text-anchor="start" dominant-baseline="text-before-edge" transform="matrix(1 0 0 1 -70 2)">concludiamo</text></g></g><g><path fill="#C0C0C0" stroke="none" paint-order="stroke fill markers" d=" M 35 265 L 193.314453125 265 Q 203.314453125 265 203.314453125 275 L 203.314453125 296 Q 203.314453125 306 193.314453125 306 L 35 306 Q 25 306 25 296 L 25 275 Q 25 265 35 265 Z" fill-opacity="0.2"/></g><g><path fill="#ffffff" stroke="none" paint-order="stroke fill markers" d=" M 28 258 L 186.314453125 258 Q 196.314453125 258 196.314453125 268 L 196.314453125 289 Q 196.314453125 299 186.314453125 299 L 28 299 Q 18 299 18 289 L 18 268 Q 18 258 28 258 Z"/></g><g><path fill="none" stroke="#000000" paint-order="fill stroke markers" d=" M 28 258 L 186.314453125 258 Q 196.314453125 258 196.314453125 268 L 196.314453125 289 Q 196.314453125 299 186.314453125 299 L 28 299 Q 18 299 18 289 L 18 268 Q 18 258 28 258 Z" stroke-miterlimit="10" stroke-dasharray=""/></g><g><g><path fill="none" stroke="none"/><text fill="#000000" stroke="none" font-family="Arial" font-size="13px" font-style="normal" font-weight="bold" text-decoration="undefined" x="177.6572265625" y="269.5" text-anchor="middle" dominant-baseline="central" transform="matrix(1 0 0 1 -70 2)">Attesa provider pagamento</text></g></g><g><path fill="#C0C0C0" stroke="none" paint-order="stroke fill markers" d=" M 243 265 L 381.78271484375 265 Q 391.78271484375 265 391.78271484375 275 L 391.78271484375 296 Q 391.78271484375 306 381.78271484375 306 L 243 306 Q 233 306 233 296 L 233 275 Q 233 265 243 265 Z" fill-opacity="0.2"/></g><g><path fill="#ffffff" stroke="none" paint-order="stroke fill markers" d=" M 236 258 L 374.78271484375 258 Q 384.78271484375 258 384.78271484375 268 L 384.78271484375 289 Q 384.78271484375 299 374.78271484375 299 L 236 299 Q 226 299 226 289 L 226 268 Q 226 258 236 258 Z"/></g><g><path fill="none" stroke="#000000" paint-order="fill stroke markers" d=" M 236 258 L 374.78271484375 258 Q 384.78271484375 258 384.78271484375 268 L 384.78271484375 289 Q 384.78271484375 299 374.78271484375 299 L 236 299 Q 226 299 226 289 L 226 268 Q 226 258 236 258 Z" stroke-miterlimit="10" stroke-dasharray=""/></g><g><g><path fill="none" stroke="none"/><text fill="#000000" stroke="none" font-family="Arial" font-size="13px" font-style="normal" font-weight="bold" text-decoration="undefined" x="375.891357421875" y="269.5" text-anchor="middle" dominant-baseline="central" transform="matrix(1 0 0 1 -70 2)">Aggiornamento bilancio</text></g></g><g><path fill="none" stroke="#000000" paint-order="fill stroke markers" d=" M 159 243 L 138 257" stroke-miterlimit="10" stroke-dasharray=""/></g><g><path fill="none" stroke="#000000" paint-order="fill stroke markers" d=" M 144.12083628127033 247.8602317743892 L 138 257 L 148.79087693182163 254.86529275021616" stroke-miterlimit="10" stroke-dasharray=""/></g><g><path fill="none" stroke="#000000" paint-order="fill stroke markers" d=" M 233 243 L 262 257" stroke-miterlimit="10" stroke-dasharray=""/></g><g><path fill="none" stroke="#000000" paint-order="fill stroke markers" d=" M 251.01790261509768 256.3726747027879 L 262 257 L 254.6780704391531 248.79089849581598" stroke-miterlimit="10" stroke-dasharray=""/></g><g><path fill="none" stroke="#000000" paint-order="fill stroke markers" d=" M 197 185 L 194 201" stroke-miterlimit="10" stroke-dasharray=""/></g><g><path fill="none" stroke="#000000" paint-order="fill stroke markers" d=" M 191.7354465389086 190.23562367706057 L 194 201 L 200.0102823844972 191.78715539810844" stroke-miterlimit="10" stroke-dasharray=""/></g><g><path fill="#C0C0C0" stroke="none" paint-order="stroke fill markers" d=" M 177 337 L 209 313 L 241 337 L 209 361 L 177 337" fill-opacity="0.2"/></g><g><path fill="#ffffff" stroke="none" paint-order="stroke fill markers" d=" M 170 330 L 202 306 L 234 330 L 202 354 L 170 330"/></g><g><path fill="none" stroke="#000000" paint-order="fill stroke markers" d=" M 170 330 L 202 306 L 234 330 L 202 354 L 170 330 L 170 330" stroke-miterlimit="10" stroke-dasharray=""/></g><g><path fill="none" stroke="#000000" paint-order="fill stroke markers" d=" M 147 300 L 169 312" stroke-miterlimit="10" stroke-dasharray=""/></g><g><path fill="none" stroke="#000000" paint-order="fill stroke markers" d=" M 158.06249618691749 310.8290984931237 L 169 312 L 162.0939692801294 303.43806448890183" stroke-miterlimit="10" stroke-dasharray=""/></g><g><path fill="none" stroke="#000000" paint-order="fill stroke markers" d=" M 261 300 L 235 313" stroke-miterlimit="10" stroke-dasharray=""/></g><g><path fill="none" stroke="#000000" paint-order="fill stroke markers" d=" M 242.20721915496142 304.6900064950472 L 235 313 L 245.97232629693906 312.22022077900255" stroke-miterlimit="10" stroke-dasharray=""/></g><g><path fill="#C0C0C0" stroke="none" paint-order="stroke fill markers" d=" M 193 406 C 193 398.8202976 198.8202976 393 206 393 C 213.1797024 393 219 398.8202976 219 406 C 219 413.1797024 213.1797024 419 206 419 C 198.8202976 419 193 413.1797024 193 406 Z" fill-opacity="0.2"/></g><g><path fill="none" stroke="#000000" paint-order="fill stroke markers" d=" M 186 399 C 186 391.8202976 191.8202976 386 199 386 C 206.1797024 386 212 391.8202976 212 399 C 212 406.1797024 206.1797024 412 199 412 C 191.8202976 412 186 406.1797024 186 399 Z" stroke-miterlimit="10" stroke-dasharray=""/></g><g><path fill="#000000" stroke="none" paint-order="stroke fill markers" d=" M 191 399 C 191 394.5817216 194.58172159999998 391 199 391 C 203.41827840000002 391 207 394.5817216 207 399 C 207 403.4182784 203.41827840000002 407 199 407 C 194.58172159999998 407 191 403.4182784 191 399 Z"/></g><g><path fill="none" stroke="#000000" paint-order="fill stroke markers" d=" M 201 355 L 200 385" stroke-miterlimit="10" stroke-dasharray=""/></g><g><path fill="none" stroke="#000000" paint-order="fill stroke markers" d=" M 196.13138670550273 374.7027270028595 L 200 385 L 204.54574886967976 374.9832057416654" stroke-miterlimit="10" stroke-dasharray=""/></g></g></svg>